<?xml version="1.0" encoding="utf-8"?>
<!-- Generator: Adobe Illustrator 18.0.0, SVG Export Plug-In . SVG Version: 6.00 Build 0)  -->
<!DOCTYPE svg PUBLIC "-//W3C//DTD SVG 1.1//EN" "http://www.w3.org/Graphics/SVG/1.1/DTD/svg11.dtd">
<svg version="1.1" id="Layer_1" xmlns="http://www.w3.org/2000/svg" xmlns:xlink="http://www.w3.org/1999/xlink" x="0px" y="0px"
	 viewBox="0 0 1285 1160" enable-background="new 0 0 1285 1160" xml:space="preserve">
<g>
	<path d="M646.1,452.4h-12.4v95.7c0,6.8-5.5,12.4-12.4,12.4h-6.5c-6.8,0-12.4-5.5-12.4-12.4v-83.3c0-6.8-5.6-12.4-12.4-12.4h-12.4
		v98.7c0,6.8,0,34.2,34.2,34.2h12.2v-0.1l0.1,0.1c34.2,0,34.2-27.4,34.2-34.2v-86.3C658.5,458,653,452.4,646.1,452.4z"/>
	<path d="M488.4,486.9v98.4h12.4c6.8,0,12.4-5.5,12.4-12.4v-31c0-6.8,5.6-12.4,12.4-12.4h26.6c6.8,0,12.4-5.5,12.4-12.4v-12.4h-41.9
		c-0.6,0-1.3,0-2.2,0c-4.1,0.2-7.3,3.5-7.3,7.6v-22.6c0-6.8,5.6-12.4,12.4-12.4h26.6c6.8,0,12.4-5.5,12.4-12.4v-12.4h-41.9
		C515.8,452.7,488.4,452.7,488.4,486.9z"/>
	<path d="M841.8,572v-12.3h-38.9c-6.8,0-12.3-5.5-12.3-12.3V541c0-6.8,5.5-12.3,12.3-12.3h26.7c6.8,0,12.3-5.5,12.3-12.3v-12.3
		h-41.9c-0.5,0-1.3,0-2,0c-4.1,0.2-7.3,3.5-7.3,7.6v-22.5c0-6.8,5.5-12.3,12.3-12.3h26.7c6.8,0,12.3-5.5,12.3-12.3v-12.3h-41.9
		c-6.8,0-34,0-34,34v64c0,34,27.2,34,34,34h29.6C836.3,584.3,841.8,578.8,841.8,572z"/>
	<path d="M746.4,559.8h-29l33.2-41.8h-32.1l-52.7,66.4H759V572C759,565.3,753.4,559.8,746.4,559.8z"/>
	<path d="M665.8,464.7c0,6.8,5.7,12.3,12.6,12.3h29l-33.2,41.8h32.1l52.7-66.4h-93.2V464.7z"/>
	<g>
		<path d="M488.4,610.2l2.4,0l0.1,29.3l-2.4,0L488.4,610.2z"/>
		<path d="M520,635.4l-9.8-21.9l0.1,25.9l-2.4,0l-0.1-29.3c1.2,0,2.4,0,3.6,0l9.9,22.1l9.7-22.2c1.2,0,2.4,0,3.6,0l0.1,29.3l-2.4,0
			l-0.1-25.9l-9.7,21.9L520,635.4z"/>
		<path d="M558.1,610l3.6,0l10.7,29.3l-2.6,0l-3.5-9.8l-12.6,0l-3.4,9.8l-2.6,0L558.1,610z M565.3,627.1l-5.5-15.3l-5.4,15.3
			L565.3,627.1z"/>
		<path d="M583.8,618.4c0-10.3,16.9-11.9,20.9-3.6l-2.2,1.1c-3-6-16.3-5.1-16.3,2.6l0,12.3c0,8.7,17.1,8.7,17.1,0l0-3.6l-9,0v-2.4
			c3.8,0,7.6,0,11.4,0l0,6.1c0,12-22,12.1-22,0.1L583.8,618.4z"/>
		<path d="M639.7,612.2l-15.9,0l0,11l14.7,0l0,2.5l-14.7,0l0,11l15.9,0l0,2.4l-18.4,0l-0.1-29.3l18.4,0L639.7,612.2z"/>
		<path d="M686.9,635l-9.8-21.9l0.1,25.9l-2.4,0l-0.1-29.3c1.2,0,2.4,0,3.6,0l9.9,22.1l9.7-22.2c1.2,0,2.4,0,3.6,0l0.1,29.3l-2.4,0
			l-0.1-25.9l-9.7,21.9L686.9,635z"/>
		<path d="M724.9,609.6l3.6,0l10.7,29.3l-2.6,0l-3.5-9.8l-12.6,0l-3.4,9.8l-2.6,0L724.9,609.6z M732.2,626.7l-5.5-15.3l-5.4,15.3
			L732.2,626.7z"/>
		<path d="M754.4,609.6l0,16.1l16.4-16.1l3.1,0l-14.1,14.2l14.1,15.2l-3.1,0l-12.7-13.4l-3.7,3.7l0,9.8l-2.4,0l-0.1-29.3
			L754.4,609.6z"/>
		<path d="M805.5,611.8l-15.9,0l0,11l14.7,0l0,2.5l-14.7,0l0,11l15.9,0l0,2.4l-18.4,0l-0.1-29.3l18.4,0L805.5,611.8z"/>
		<path d="M841.6,638.6l-2.9,0l-9.9-12.4l-5.6,0c0,4.1,0,8.4,0,12.4l-2.4,0l-0.1-29.3l11,0c5.5,0,9.7,2.4,9.8,8.5
			c0,6.1-4.5,8.4-9.8,8.4h-0.1L841.6,638.6z M831.8,624c4.5,0,7.3-1.5,7.3-6.1c0-4.6-3.1-6.2-7.3-6.1l-8.7,0l0,12.2L831.8,624z"/>
	</g>
</g>
</svg>
